HIERARCHY
ROOT Hips
{
	OFFSET -0.001795 -0.223333 0.028219
	CHANNELS 6 Xposition Yposition Zposition Zrotation Yrotation Xrotation 
	JOINT LeftUpLeg
	{
		OFFSET 0.069520 -0.091406 -0.006815
		CHANNELS 3 Zrotation Yrotation Xrotation
		JOINT LeftLeg
		{
			OFFSET 0.034277 -0.375199 -0.004496
			CHANNELS 3 Zrotation Yrotation Xrotation
			JOINT LeftFoot
			{
				OFFSET -0.013596 -0.397961 -0.043693
				CHANNELS 3 Zrotation Yrotation Xrotation
				JOINT LeftToe
				{
					OFFSET 0.026358 -0.055791 0.119288
					CHANNELS 3 Zrotation Yrotation Xrotation
					End Site
					{
						OFFSET 0.000000 0.000000 0.000000
					}
				}
			}
		}
	}
	JOINT RightUpLeg
	{
		OFFSET -0.067670 -0.090522 -0.004320
		CHANNELS 3 Zrotation Yrotation Xrotation
		JOINT RightLeg
		{
			OFFSET -0.038290 -0.382569 -0.008850
			CHANNELS 3 Zrotation Yrotation Xrotation
			JOINT RightFoot
			{
				OFFSET 0.015774 -0.398415 -0.042312
				CHANNELS 3 Zrotation Yrotation Xrotation
				JOINT RightToe
				{
					OFFSET -0.025372 -0.048144 0.123348
					CHANNELS 3 Zrotation Yrotation Xrotation
					End Site
					{
						OFFSET 0.000000 0.000000 0.000000
					}
				}
			}
		}
	}
	JOINT Spine
	{
		OFFSET -0.002533 0.108963 -0.026696
		CHANNELS 3 Zrotation Yrotation Xrotation
		JOINT Spine1
		{
			OFFSET 0.005487 0.135180 0.001092
			CHANNELS 3 Zrotation Yrotation Xrotation
			JOINT Spine2
			{
				OFFSET 0.001457 0.052922 0.025425
				CHANNELS 3 Zrotation Yrotation Xrotation
				JOINT Neck
				{
					OFFSET -0.002778 0.213870 -0.042857
					CHANNELS 3 Zrotation Yrotation Xrotation
					JOINT Head
					{
						OFFSET 0.005152 0.064970 0.051349
						CHANNELS 3 Zrotation Yrotation Xrotation
						End Site
						{
							OFFSET 0.000000 0.000000 0.000000
						}
					}
				}
				JOINT LeftShoulder
				{
					OFFSET 0.078845 0.121749 -0.034090
					CHANNELS 3 Zrotation Yrotation Xrotation
					JOINT LeftArm
					{
						OFFSET 0.090977 0.030469 -0.008868
						CHANNELS 3 Zrotation Yrotation Xrotation
						JOINT LeftForeArm
						{
							OFFSET 0.259612 -0.012772 -0.027456
							CHANNELS 3 Zrotation Yrotation Xrotation
							JOINT LeftHand
							{
								OFFSET 0.249234 0.008986 -0.001171
								CHANNELS 3 Zrotation Yrotation Xrotation
								End Site
								{
									OFFSET 0.000000 0.000000 0.000000
								}
							}
						}
					}
				}
				JOINT RightShoulder
				{
					OFFSET -0.081759 0.118833 -0.038615
					CHANNELS 3 Zrotation Yrotation Xrotation
					JOINT RightArm
					{
						OFFSET -0.096012 0.032551 -0.009143
						CHANNELS 3 Zrotation Yrotation Xrotation
						JOINT RightForeArm
						{
							OFFSET -0.253742 -0.013329 -0.021401
							CHANNELS 3 Zrotation Yrotation Xrotation
							JOINT RightHand
							{
								OFFSET -0.255298 0.007772 -0.005559
								CHANNELS 3 Zrotation Yrotation Xrotation
								End Site
								{
									OFFSET 0.000000 0.000000 0.000000
								}
							}
						}
					}
				}
			}
		}
	}
}
MOTION
Frames: 17
Frame Time: 0.05000000
-5.875927 0.836174 35.762302 5.497670 -30.169003 9.365647 -5.962272 -3.334024 -40.522948 -1.957011 1.823603 30.685756 3.295636 4.599197 -20.846232 0.000000 0.000000 0.000000 -8.196182 1.491145 -12.815427 7.425149 5.278656 69.529019 0.154344 -1.205845 2.560297 0.000000 0.000000 0.000000 -5.082167 0.496545 -11.362454 -2.018968 0.633820 -10.232407 -0.140382 7.978625 26.396916 3.141099 -0.268597 -29.148515 0.000000 0.000000 0.000000 14.864087 8.398701 -2.096846 -78.536525 -5.375038 -2.807823 -11.609716 -20.134947 3.094599 0.000000 0.000000 0.000000 -19.671758 -10.971662 0.297001 89.568240 6.788439 -7.270411 13.301469 27.158209 4.139490 0.000000 0.000000 0.000000 
-6.323442 0.851228 37.183407 4.918734 -29.787561 8.997634 -9.460693 -3.791868 -30.852764 1.334644 0.039022 24.448368 2.874452 2.080426 -27.789323 0.000000 0.000000 0.000000 -6.231411 2.508372 -27.689636 14.408804 0.923336 82.646804 -4.177702 -13.091173 5.443078 0.000000 0.000000 0.000000 -4.121024 0.450702 -10.380587 -1.010357 0.272416 -10.296480 -1.618954 5.202271 26.349510 3.783285 -0.898767 -29.840600 0.000000 0.000000 0.000000 15.552615 7.611636 -2.338412 -77.604220 -7.360505 0.066780 -12.505955 -21.918798 3.640588 0.000000 0.000000 0.000000 -20.298698 -11.437210 0.900904 89.261898 5.997907 -10.206555 15.326804 23.356365 3.817247 0.000000 0.000000 0.000000 
-6.796623 0.862503 38.557732 4.494432 -28.590654 8.476948 -11.093292 -2.930353 -20.191834 2.786734 -0.734369 15.350004 2.702489 0.397049 -31.701002 0.000000 0.000000 0.000000 -7.350645 3.700850 -38.672925 18.128078 -3.773553 82.169740 -7.774105 -21.394284 0.058472 0.000000 0.000000 0.000000 -3.331666 0.412786 -9.890052 -0.368635 0.063228 -10.918895 -3.064241 1.646910 26.939245 2.446049 -0.715057 -30.098439 0.000000 0.000000 0.000000 17.201775 7.007352 -2.704722 -77.734517 -9.672495 3.653306 -10.731310 -25.285760 3.931180 0.000000 0.000000 0.000000 -20.362745 -11.981217 1.452906 88.622778 4.797542 -13.733663 16.923336 19.423710 3.293090 0.000000 0.000000 0.000000 
-7.316007 0.866569 39.950142 3.493076 -27.351598 4.967867 -10.421164 -0.831677 -6.010456 2.686262 -0.602163 5.066959 2.726722 -0.278928 -33.715921 0.000000 0.000000 0.000000 -8.841359 3.943930 -42.404147 18.311672 -4.110952 71.868585 -7.820742 -20.930630 -9.522536 0.000000 0.000000 0.000000 -2.181950 0.224289 -5.213245 0.210911 -0.118215 -11.886409 -4.059614 -1.654793 27.106472 1.528825 -0.763317 -29.937123 0.000000 0.000000 0.000000 18.238228 6.888625 -3.199695 -76.948885 -11.967795 6.738810 -8.355605 -28.923316 4.059929 0.000000 0.000000 0.000000 -20.157217 -12.678602 1.884507 87.090604 2.679358 -17.731261 17.677961 16.427524 2.739645 0.000000 0.000000 0.000000 
-7.895913 0.861806 41.347527 3.554555 -26.719167 1.273802 -10.889218 1.397726 5.807498 3.749469 -0.547052 -0.196489 2.927238 -2.160165 -36.296081 0.000000 0.000000 0.000000 -8.816168 3.974087 -41.805106 13.596574 -0.954621 54.845725 -7.758105 -16.449084 -18.465717 0.000000 0.000000 0.000000 -1.737953 0.063821 -0.254294 0.748023 -0.289880 -12.565768 -4.512570 -3.710262 27.108835 2.968729 -1.713680 -30.390094 0.000000 0.000000 0.000000 18.833527 5.824419 -3.302005 -75.213633 -16.061859 10.091569 -4.492901 -30.687687 3.352460 0.000000 0.000000 0.000000 -18.918527 -14.099954 1.654460 84.676534 -0.437650 -20.866652 17.062078 14.113276 2.138561 0.000000 0.000000 0.000000 
-8.571735 0.848213 42.747913 4.549248 -26.250233 -1.614674 -11.149716 3.725622 15.708688 4.137020 -0.352934 -3.856213 2.775512 -6.149379 -36.157175 0.000000 0.000000 0.000000 -9.935015 3.305999 -38.887264 7.736123 0.459083 33.209110 -7.415405 -8.856165 -20.780439 0.000000 0.000000 0.000000 -2.794930 0.023085 1.999386 1.105465 -0.413883 -12.736443 -4.687061 -6.574298 27.547404 4.009459 -2.554093 -30.977887 0.000000 0.000000 0.000000 20.463751 5.960304 -3.895555 -73.617692 -16.814544 11.756865 -1.804297 -32.696143 2.973685 0.000000 0.000000 0.000000 -18.691549 -14.808371 1.952734 83.109162 -2.804117 -23.924753 16.172266 11.682191 1.549383 0.000000 0.000000 0.000000 
-9.348414 0.829714 44.162067 5.203239 -24.866274 -3.917368 -9.626673 5.482679 23.835569 3.952768 -0.204521 -5.542666 3.399100 -9.310098 -38.492297 0.000000 0.000000 0.000000 -10.904239 2.662373 -36.388177 5.545719 0.152163 19.574223 -6.853769 -6.385807 -18.829934 0.000000 0.000000 0.000000 -3.261831 -0.018326 4.486890 1.033582 -0.370175 -13.178013 -5.136068 -7.790145 27.207397 3.338591 -2.352366 -31.273756 0.000000 0.000000 0.000000 20.444029 6.114052 -4.047705 -70.992737 -18.556460 12.272240 -1.098951 -33.977739 3.057682 0.000000 0.000000 0.000000 -17.839290 -15.956214 1.592338 83.137946 -5.065517 -25.922080 13.113351 9.834080 1.029707 0.000000 0.000000 0.000000 
-10.242128 0.815762 45.620853 4.879761 -22.822883 -3.012595 -6.335865 5.556962 26.860893 3.446127 -0.400040 -1.777915 4.007296 -12.476814 -40.235491 0.000000 0.000000 0.000000 -11.653574 2.455628 -37.970659 7.378087 -0.288291 21.426073 -7.185104 -8.810179 -19.169615 0.000000 0.000000 0.000000 -3.013584 -0.018046 2.813415 1.517362 -0.514983 -12.868540 -5.365722 -8.753755 26.740267 2.796079 -2.138038 -30.861937 0.000000 0.000000 0.000000 20.664506 6.701672 -4.147300 -71.362814 -18.323356 12.357066 -1.775075 -35.420135 3.482249 0.000000 0.000000 0.000000 -17.993626 -17.343341 1.339611 82.106826 -7.044995 -26.755276 11.975370 7.124770 0.614775 0.000000 0.000000 0.000000 
-11.272860 0.808543 47.146576 3.628048 -22.811932 -0.913156 -3.524313 4.545192 24.717251 3.471094 -1.011371 11.270746 3.877233 -13.433642 -40.081991 0.000000 0.000000 0.000000 -9.489716 3.342180 -40.770879 8.169500 -0.070438 32.348923 -7.085473 -9.409149 -19.776408 0.000000 0.000000 0.000000 -1.621787 0.012958 0.279716 1.251769 -0.392089 -13.406533 -5.350836 -8.619017 26.814155 2.495947 -1.935253 -31.177242 0.000000 0.000000 0.000000 19.533316 7.908540 -4.311065 -70.556513 -16.146753 10.425201 -2.442516 -35.851419 3.843524 0.000000 0.000000 0.000000 -18.155796 -18.015980 1.175127 82.517525 -8.509553 -27.830414 10.938682 5.949829 0.443930 0.000000 0.000000 0.000000 
-12.319662 0.813508 48.610996 1.847409 -23.855081 -1.037769 -0.038259 2.832669 19.485372 0.849583 0.306714 31.205325 1.458133 -14.484794 -30.596603 0.000000 0.000000 0.000000 -5.317718 4.312704 -38.607349 9.230112 0.048087 38.821592 -6.970131 -9.903400 -18.577180 0.000000 0.000000 0.000000 -0.217987 -0.029589 0.952791 1.382029 -0.438007 -13.730244 -4.477485 -6.828700 26.295015 3.497827 -2.310227 -30.171443 0.000000 0.000000 0.000000 19.250088 8.661464 -4.167055 -72.112131 -13.227771 8.155521 -5.833777 -35.596529 4.783505 0.000000 0.000000 0.000000 -17.826668 -17.902410 0.916870 83.308655 -8.303671 -27.241326 10.999234 5.780544 0.442944 0.000000 0.000000 0.000000 
-13.215638 0.822375 49.876442 1.021434 -25.962673 -3.406134 1.320176 1.136558 9.438534 1.700969 2.647812 53.642638 -0.388429 -10.900760 -19.085159 0.000000 0.000000 0.000000 -1.102159 3.910480 -29.297221 8.327634 0.863818 38.867045 -8.772835 -9.862156 -27.091482 0.000000 0.000000 0.000000 0.326139 -0.152629 5.063476 0.898778 -0.302855 -14.121277 -2.918706 -4.468971 25.834435 4.152801 -2.334497 -30.954641 0.000000 0.000000 0.000000 19.421312 8.490193 -3.821514 -75.801825 -11.231430 6.749602 -7.434006 -33.336928 4.691976 0.000000 0.000000 0.000000 -18.401703 -15.840006 1.399870 84.139402 -4.207564 -23.901410 12.320554 8.681260 0.886317 0.000000 0.000000 0.000000 
-13.928396 0.834463 50.980263 0.765710 -26.797368 -2.030060 2.510056 -0.333851 -6.857804 3.490583 3.652545 67.416431 0.188216 -8.888843 -18.041724 0.000000 0.000000 0.000000 -0.312601 2.769001 -22.631497 6.770765 0.989586 32.626298 -9.673239 -6.893095 -31.744258 0.000000 0.000000 0.000000 -0.144723 -0.103167 3.774802 0.683837 -0.232327 -14.246301 -1.956619 -2.287988 26.257464 4.377691 -2.260164 -30.115012 0.000000 0.000000 0.000000 20.655117 8.360235 -3.444675 -79.186053 -9.013826 5.185170 -10.399326 -31.707814 5.069339 0.000000 0.000000 0.000000 -19.474561 -14.733248 1.579363 84.848861 -1.105891 -20.811222 15.066837 14.272020 1.964083 0.000000 0.000000 0.000000 
-14.527805 0.849314 52.008411 0.932517 -28.985760 0.998930 2.189950 -0.893558 -21.308723 2.623636 5.108360 67.943046 2.658282 -4.075980 -23.369397 0.000000 0.000000 0.000000 -1.169730 1.975257 -18.924326 6.578969 0.510499 25.116857 -10.256775 -4.444910 -33.264827 0.000000 0.000000 0.000000 -0.762909 0.025513 -0.225226 0.159276 -0.085230 -14.017928 -0.708964 0.713286 26.559950 4.492956 -2.011155 -29.863849 0.000000 0.000000 0.000000 20.706552 8.746799 -3.140528 -81.262866 -6.954646 3.057592 -14.320700 -29.723075 5.646375 0.000000 0.000000 0.000000 -19.940888 -13.016849 1.589495 84.607100 3.581153 -15.601646 18.433255 20.559270 3.612217 0.000000 0.000000 0.000000 
-15.068664 0.857244 53.002892 1.325952 -32.659007 -1.112167 1.735340 -0.640574 -26.347078 0.776666 5.343252 56.911621 3.216897 -1.836382 -27.638805 0.000000 0.000000 0.000000 -0.630294 0.879249 -9.818020 4.123428 0.662387 18.544412 -11.109786 1.308493 -35.502655 0.000000 0.000000 0.000000 -1.248609 -0.027818 2.525007 -0.597945 0.118257 -14.548480 0.705727 4.292622 26.880257 4.174520 -1.514447 -30.705229 0.000000 0.000000 0.000000 21.088987 8.746382 -2.748080 -81.435513 -5.313033 0.514585 -15.107613 -27.897176 5.406127 0.000000 0.000000 0.000000 -21.216780 -10.677768 1.929075 84.528113 10.205119 -9.338836 18.678741 28.334599 5.354310 0.000000 0.000000 0.000000 
-15.579132 0.858749 53.997578 1.724990 -36.127315 -5.721737 2.559667 0.065984 -24.308334 -2.428295 4.263277 37.729133 2.761310 1.010579 -27.163569 0.000000 0.000000 0.000000 -1.148651 -0.113802 2.487907 3.110880 0.356080 11.691028 -12.220865 4.851409 -38.144138 0.000000 0.000000 0.000000 -1.361900 -0.093791 8.102723 -1.044462 0.212061 -15.072189 1.545054 6.721674 26.998175 3.433336 -1.071482 -30.641853 0.000000 0.000000 0.000000 21.807670 9.121948 -2.539731 -81.806282 -2.413774 -2.481348 -15.742365 -26.532617 5.248599 0.000000 0.000000 0.000000 -22.972114 -8.294752 2.463851 84.054740 17.246813 -3.499688 17.061071 35.243623 6.409473 0.000000 0.000000 0.000000 
-16.081194 0.852740 55.035576 1.683764 -38.858297 -5.978269 3.736784 0.707556 -25.135317 -3.510000 2.347914 21.648124 1.744431 0.814309 -24.613773 0.000000 0.000000 0.000000 -1.259589 -0.245078 8.054458 2.703040 0.209781 8.423614 -13.482258 3.017381 -40.686886 0.000000 0.000000 0.000000 -1.224751 -0.089135 8.264303 -1.368742 0.280234 -15.134342 2.167695 8.732334 27.177589 3.440275 -0.954641 -30.622825 0.000000 0.000000 0.000000 22.321828 8.999037 -2.346401 -82.434827 -0.182383 -4.638077 -16.293490 -23.723965 4.722271 0.000000 0.000000 0.000000 -23.723039 -7.778008 2.480203 82.373532 20.997067 -0.010873 16.281861 41.934567 7.509922 0.000000 0.000000 0.000000 
-16.584093 0.840200 56.145214 0.352097 -41.258326 -6.067792 3.900974 0.945873 -24.658001 -1.854576 1.192616 15.961651 1.166406 0.319294 -24.306657 0.000000 0.000000 0.000000 -1.074673 -0.235539 11.872316 3.255530 0.226877 9.468589 -14.747825 0.614484 -43.999624 0.000000 0.000000 0.000000 -0.523051 -0.116990 8.716797 -1.480270 0.279746 -15.104446 2.701940 9.076996 27.268972 3.132413 -0.905733 -30.613207 0.000000 0.000000 0.000000 22.170335 9.433714 -2.573242 -82.573020 2.121088 -5.946678 -15.785595 -21.430539 4.102952 0.000000 0.000000 0.000000 -24.050312 -8.158312 2.678190 81.175351 22.644438 0.643170 17.071467 48.318020 9.020195 0.000000 0.000000 0.000000 
